<svg id="Layer_1" data-name="Layer 1" xmlns="http://www.w3.org/2000/svg" width="64" height="64" viewBox="0 0 64 64"><defs><style>.cls-1{fill:#666;}</style></defs><title>knife_fork_spoon</title><path id="knife_fork_spoon" class="cls-1" d="M60,17c0-7.17-4-13-9-13s-9,5.83-9,13c0,6.27,3.1,10.45,8,11V59a1,1,0,0,0,2,0v-31C56.9,27.45,60,23.27,60,17Zm-9,9c-4.32,0-7-3.45-7-9,0-6.07,3.14-11,7-11s7,4.93,7,11C58,22.55,55.32,26,51,26ZM33,4c-5.13,0-9,9.14-9,21.25,0,6.79,3.38,12,8,12.68V59a1,1,0,0,0,2,0V5A1,1,0,0,0,33,4ZM26,25.25c0-10.38,2.94-17.67,6-19V35.88C28.57,35.16,26,30.75,26,25.25ZM17,4a1,1,0,0,0-1,1V15a5,5,0,0,1-4,4.9V5a1,1,0,1,0-2,0V19.9A5,5,0,0,1,6,15V5A1,1,0,1,0,4,5V15a7,7,0,0,0,6,6.92V59a1,1,0,0,0,2,0V21.92A7,7,0,0,0,18,15V5A1,1,0,0,0,17,4Z"/></svg>